<svg width="30" height="30" viewBox="0 0 30 30" fill="none" xmlns="http://www.w3.org/2000/svg">
<path d="M25.5768 7.93362C25.194 7.61719 24.7017 7.46484 24.2071 7.50977C23.7125 7.5547 23.2556 7.79327 22.9361 8.1735L15 17.6955L7.06374 8.17365C6.74515 7.79193 6.28798 7.5524 5.79278 7.50776C5.29759 7.46312 4.80495 7.61702 4.42323 7.93561C4.0415 8.25419 3.80198 8.71137 3.75733 9.20656C3.71269 9.70176 3.86659 10.1944 4.18518 10.5761L13.5607 21.8266C13.7366 22.0375 13.9567 22.2072 14.2054 22.3237C14.4541 22.4401 14.7254 22.5005 15 22.5005C15.2746 22.5005 15.5459 22.4401 15.7946 22.3237C16.0433 22.2072 16.2634 22.0375 16.4393 21.8266L25.8148 10.576C26.1333 10.1939 26.2871 9.70097 26.2425 9.20555C26.1978 8.71012 25.9584 8.25266 25.5768 7.93362Z" fill="#10140F"/>
</svg>
