<svg width="19" height="19" viewBox="0 0 19 19" fill="none" xmlns="http://www.w3.org/2000/svg">
<path d="M18.6041 4.74998C18.6041 4.54002 18.5207 4.33865 18.3723 4.19019C18.2238 4.04172 18.0224 3.95831 17.8125 3.95831H9.49998C9.29002 3.95831 9.08865 4.04172 8.94019 4.19019C8.79172 4.33865 8.70831 4.54002 8.70831 4.74998C8.70831 4.95994 8.79172 5.16131 8.94019 5.30977C9.08865 5.45824 9.29002 5.54165 9.49998 5.54165H17.8125C18.0224 5.54165 18.2238 5.45824 18.3723 5.30977C18.5207 5.16131 18.6041 4.95994 18.6041 4.74998Z" fill="#FFFAF0"/>
<path d="M1.18751 5.54167H3.30522C3.49197 6.06988 3.85944 6.51507 4.34268 6.79855C4.82592 7.08202 5.39382 7.18554 5.94601 7.0908C6.49819 6.99606 6.99911 6.70917 7.36022 6.28082C7.72133 5.85247 7.91939 5.31026 7.91939 4.75C7.91939 4.18975 7.72133 3.64754 7.36022 3.21919C6.99911 2.79084 6.49819 2.50395 5.94601 2.40921C5.39382 2.31447 4.82592 2.41799 4.34268 2.70146C3.85944 2.98494 3.49197 3.43013 3.30522 3.95834H1.18751C0.977547 3.95834 0.776184 4.04175 0.627717 4.19021C0.479251 4.33868 0.395844 4.54004 0.395844 4.75C0.395844 4.95997 0.479251 5.16133 0.627717 5.3098C0.776184 5.45826 0.977547 5.54167 1.18751 5.54167ZM5.54168 3.95834C5.69825 3.95834 5.85131 4.00477 5.9815 4.09176C6.11169 4.17875 6.21316 4.30239 6.27308 4.44705C6.333 4.59171 6.34868 4.75088 6.31813 4.90445C6.28759 5.05802 6.21219 5.19908 6.10147 5.3098C5.99075 5.42051 5.84969 5.49591 5.69612 5.52646C5.54256 5.55701 5.38338 5.54133 5.23872 5.48141C5.09406 5.42149 4.97042 5.32002 4.88343 5.18983C4.79644 5.05964 4.75001 4.90658 4.75001 4.75C4.75001 4.54004 4.83342 4.33868 4.98188 4.19021C5.13035 4.04175 5.33171 3.95834 5.54168 3.95834Z" fill="#FFFAF0"/>
<path d="M17.8125 8.70834H14.9031C14.7164 8.18013 14.3489 7.73494 13.8656 7.45146C13.3824 7.16799 12.8145 7.06447 12.2623 7.15921C11.7101 7.25395 11.2092 7.54084 10.8481 7.96919C10.487 8.39754 10.2889 8.93975 10.2889 9.5C10.2889 10.0603 10.487 10.6025 10.8481 11.0308C11.2092 11.4592 11.7101 11.7461 12.2623 11.8408C12.8145 11.9355 13.3824 11.832 13.8656 11.5485C14.3489 11.2651 14.7164 10.8199 14.9031 10.2917H17.8125C18.0225 10.2917 18.2238 10.2083 18.3723 10.0598C18.5207 9.91133 18.6042 9.70997 18.6042 9.5C18.6042 9.29004 18.5207 9.08868 18.3723 8.94021C18.2238 8.79175 18.0225 8.70834 17.8125 8.70834ZM12.6667 10.2917C12.5101 10.2917 12.357 10.2452 12.2268 10.1583C12.0966 10.0713 11.9952 9.94762 11.9352 9.80296C11.8753 9.6583 11.8597 9.49913 11.8902 9.34556C11.9207 9.19199 11.9961 9.05093 12.1069 8.94021C12.2176 8.8295 12.3586 8.7541 12.5122 8.72355C12.6658 8.693 12.825 8.70868 12.9696 8.7686C13.1143 8.82852 13.2379 8.92999 13.3249 9.06018C13.4119 9.19037 13.4583 9.34343 13.4583 9.5C13.4583 9.70997 13.3749 9.91133 13.2264 10.0598C13.078 10.2083 12.8766 10.2917 12.6667 10.2917Z" fill="#FFFAF0"/>
<path d="M8.70834 8.70831H1.18751C0.977547 8.70831 0.776184 8.79172 0.627717 8.94019C0.479251 9.08865 0.395844 9.29002 0.395844 9.49998C0.395844 9.70994 0.479251 9.91131 0.627717 10.0598C0.776184 10.2082 0.977547 10.2916 1.18751 10.2916H8.70834C8.91831 10.2916 9.11967 10.2082 9.26814 10.0598C9.4166 9.91131 9.50001 9.70994 9.50001 9.49998C9.50001 9.29002 9.4166 9.08865 9.26814 8.94019C9.11967 8.79172 8.91831 8.70831 8.70834 8.70831Z" fill="#FFFAF0"/>
<path d="M17.8125 13.4583H11.0834C10.8734 13.4583 10.672 13.5417 10.5236 13.6902C10.3751 13.8387 10.2917 14.04 10.2917 14.25C10.2917 14.4599 10.3751 14.6613 10.5236 14.8098C10.672 14.9582 10.8734 15.0416 11.0834 15.0416H17.8125C18.0225 15.0416 18.2238 14.9582 18.3723 14.8098C18.5208 14.6613 18.6042 14.4599 18.6042 14.25C18.6042 14.04 18.5208 13.8387 18.3723 13.6902C18.2238 13.5417 18.0225 13.4583 17.8125 13.4583Z" fill="#FFFAF0"/>
<path d="M7.12501 11.875C6.63434 11.8756 6.15588 12.0281 5.75541 12.3116C5.35494 12.5951 5.05211 12.9957 4.88855 13.4583H1.18751C0.977547 13.4583 0.776184 13.5417 0.627717 13.6902C0.479251 13.8387 0.395844 14.04 0.395844 14.25C0.395844 14.46 0.479251 14.6613 0.627717 14.8098C0.776184 14.9583 0.977547 15.0417 1.18751 15.0417H4.88855C5.03373 15.4523 5.28902 15.8151 5.62651 16.0904C5.964 16.3657 6.37069 16.5429 6.80211 16.6026C7.23352 16.6623 7.67305 16.6022 8.07263 16.4289C8.4722 16.2557 8.81644 15.9758 9.06769 15.6201C9.31893 15.2643 9.46752 14.8464 9.4972 14.4118C9.52688 13.9773 9.43651 13.543 9.23596 13.1564C9.03542 12.7698 8.73243 12.4458 8.36012 12.2198C7.98782 11.9938 7.56054 11.8745 7.12501 11.875ZM7.12501 15.0417C6.96843 15.0417 6.81537 14.9952 6.68518 14.9082C6.55499 14.8213 6.45353 14.6976 6.39361 14.553C6.33369 14.4083 6.31801 14.2491 6.34856 14.0956C6.3791 13.942 6.4545 13.8009 6.56522 13.6902C6.67593 13.5795 6.817 13.5041 6.97056 13.4735C7.12413 13.443 7.28331 13.4587 7.42797 13.5186C7.57263 13.5785 7.69627 13.68 7.78326 13.8102C7.87025 13.9404 7.91668 14.0934 7.91668 14.25C7.91668 14.46 7.83327 14.6613 7.6848 14.8098C7.53634 14.9583 7.33497 15.0417 7.12501 15.0417Z" fill="#FFFAF0"/>
</svg>
