<svg width="13" height="13" viewBox="0 0 13 13" fill="none" xmlns="http://www.w3.org/2000/svg">
<path d="M6.5 0C2.91417 0 0 2.91417 0 6.5C0 10.0858 2.91417 13 6.5 13C10.0858 13 13 10.0858 13 6.5C13 2.91417 10.0858 0 6.5 0ZM6.5 11.9167C3.51 11.9167 1.08333 9.49 1.08333 6.5C1.08333 3.51 3.51 1.08333 6.5 1.08333C9.49 1.08333 11.9167 3.51 11.9167 6.5C11.9167 9.49 9.49 11.9167 6.5 11.9167Z" fill="#10140F"/>
<path d="M6.96584 2.76257C5.92584 2.50257 4.76667 3.1634 4.4525 4.18173C4.355 4.47423 4.5175 4.77757 4.79917 4.86423C5.08083 4.9509 5.38417 4.79923 5.48167 4.50673C5.63333 4.03007 6.21833 3.69423 6.71667 3.8134C7.20417 3.93257 7.5725 4.50673 7.475 5.00507C7.38833 5.5034 6.8575 5.90423 6.34833 5.83923C6.19667 5.81757 6.03417 5.87173 5.92583 5.96923C5.80667 6.07757 5.74167 6.2184 5.74167 6.3809L5.73083 8.0709C5.73083 8.37423 5.96917 8.61257 6.2725 8.61257C6.57583 8.61257 6.81417 8.37423 6.81417 8.0709L6.825 6.89007C7.65917 6.72757 8.39584 6.04507 8.5475 5.18923C8.7425 4.1384 8.01667 3.02257 6.96584 2.76257Z" fill="#10140F"/>
<path d="M6.2942 9.08923H6.28337C5.99087 9.08923 5.75253 9.3384 5.7417 9.6309C5.7417 9.64173 5.7417 9.73923 5.7417 9.75007C5.7417 10.0426 5.98003 10.2376 6.27253 10.2484H6.28337C6.57587 10.2484 6.8142 9.97757 6.82503 9.68507C6.82503 9.67423 6.82503 9.60923 6.82503 9.5984C6.8142 9.3059 6.5867 9.08923 6.2942 9.08923Z" fill="#10140F"/>
</svg>
