<svg width="54" height="54" viewBox="0 0 54 54" fill="none" xmlns="http://www.w3.org/2000/svg">
<path d="M27 0C12.105 0 0 12.105 0 27C0 41.895 12.105 54 27 54C41.895 54 54 41.895 54 27C54 12.105 41.895 0 27 0ZM27 49.5C14.58 49.5 4.5 39.42 4.5 27C4.5 14.58 14.58 4.5 27 4.5C39.42 4.5 49.5 14.58 49.5 27C49.5 39.42 39.42 49.5 27 49.5Z" fill="#00A85A"/>
<path d="M28.935 11.4751C24.615 10.3951 19.8 13.1401 18.495 17.3701C18.09 18.5851 18.765 19.8451 19.935 20.2051C21.105 20.5651 22.365 19.9351 22.77 18.7201C23.4 16.7401 25.83 15.3451 27.9 15.8401C29.925 16.3351 31.455 18.7201 31.05 20.7901C30.69 22.8601 28.485 24.5251 26.37 24.2551C25.74 24.1651 25.065 24.3901 24.615 24.7951C24.12 25.2451 23.85 25.8301 23.85 26.5051L23.805 33.5251C23.805 34.7851 24.795 35.7751 26.055 35.7751C27.315 35.7751 28.305 34.7851 28.305 33.5251L28.35 28.6201C31.815 27.9451 34.875 25.1101 35.505 21.5551C36.315 17.1901 33.3 12.5551 28.935 11.4751Z" fill="#00A85A"/>
<path d="M26.1449 37.755H26.0999C24.8849 37.755 23.8949 38.79 23.8499 40.005C23.8499 40.05 23.8499 40.455 23.8499 40.5C23.8499 41.715 24.8399 42.525 26.0549 42.57H26.0999C27.3149 42.57 28.3049 41.445 28.3499 40.23C28.3499 40.185 28.3499 39.915 28.3499 39.87C28.3049 38.655 27.3599 37.755 26.1449 37.755Z" fill="#00A85A"/>
</svg>
