<svg width="13" height="13" viewBox="0 0 13 13" fill="none" xmlns="http://www.w3.org/2000/svg">
<path d="M6.5 0.73645C2.91417 0.73645 0 3.48194 0 6.86022C0 10.2385 2.91417 12.984 6.5 12.984C10.0858 12.984 13 10.2385 13 6.86022C13 3.48194 10.0858 0.73645 6.5 0.73645ZM6.5 11.9634C3.51 11.9634 1.08333 9.67715 1.08333 6.86022C1.08333 4.04329 3.51 1.75708 6.5 1.75708C9.49 1.75708 11.9167 4.04329 11.9167 6.86022C11.9167 9.67715 9.49 11.9634 6.5 11.9634Z" fill="#B7B8B7"/>
<path d="M6.96584 3.33909C5.92584 3.09413 4.76667 3.71672 4.4525 4.67611C4.355 4.95168 4.5175 5.23745 4.79917 5.3191C5.08083 5.40075 5.38417 5.25787 5.48167 4.9823C5.63333 4.53322 6.21833 4.21683 6.71667 4.32909C7.20417 4.44136 7.5725 4.9823 7.475 5.45178C7.38833 5.92127 6.8575 6.29891 6.34833 6.23767C6.19667 6.21726 6.03417 6.26829 5.92583 6.36014C5.80667 6.46221 5.74167 6.59489 5.74167 6.74798L5.73083 8.34016C5.73083 8.62594 5.96917 8.85048 6.2725 8.85048C6.57583 8.85048 6.81417 8.62594 6.81417 8.34016L6.825 7.22768C7.65917 7.07458 8.39584 6.43159 8.5475 5.62529C8.7425 4.63528 8.01667 3.58404 6.96584 3.33909Z" fill="#B7B8B7"/>
<path d="M6.2942 9.29953H6.28337C5.99087 9.29953 5.75253 9.53427 5.7417 9.80984C5.7417 9.82005 5.7417 9.91191 5.7417 9.92211C5.7417 10.1977 5.98003 10.3814 6.27253 10.3916H6.28337C6.57587 10.3916 6.8142 10.1364 6.82503 9.86087C6.82503 9.85067 6.82503 9.78943 6.82503 9.77922C6.8142 9.50365 6.5867 9.29953 6.2942 9.29953Z" fill="#B7B8B7"/>
</svg>
